<?xml version="1.0" encoding="UTF-8" standalone="no"?>
<!DOCTYPE svg PUBLIC "-//W3C//DTD SVG 1.1//EN"
 "http://www.w3.org/Graphics/SVG/1.1/DTD/svg11.dtd">
<!-- Generated by graphviz version 2.40.1 (20161225.0304)
 -->
<!-- Title: G Pages: 1 -->
<svg width="310pt" height="67pt"
 viewBox="0.00 0.00 309.59 66.80" xmlns="http://www.w3.org/2000/svg" xmlns:xlink="http://www.w3.org/1999/xlink">
<g id="graph0" class="graph" transform="scale(1 1) rotate(0) translate(4 62.8)">
<title>G</title>
<polygon fill="#ffffff" stroke="transparent" points="-4,4 -4,-62.8 305.5884,-62.8 305.5884,4 -4,4"/>
<!-- app.js -->
<g id="node1" class="node">
<title>app.js</title>
<path fill="#e5e5e5" stroke="#000000" d="M40.8742,-24.7008C40.8742,-24.7008 8.1756,-24.7008 8.1756,-24.7008 4.0753,-24.7008 -.0249,-20.6005 -.0249,-16.5003 -.0249,-16.5003 -.0249,-8.2997 -.0249,-8.2997 -.0249,-4.1995 4.0753,-.0992 8.1756,-.0992 8.1756,-.0992 40.8742,-.0992 40.8742,-.0992 44.9745,-.0992 49.0747,-4.1995 49.0747,-8.2997 49.0747,-8.2997 49.0747,-16.5003 49.0747,-16.5003 49.0747,-20.6005 44.9745,-24.7008 40.8742,-24.7008"/>
<text text-anchor="middle" x="24.5249" y="-8.2" font-family="Times,serif" font-size="14.00" fill="#000000">app.js</text>
</g>
<!-- lib/error_view.js -->
<g id="node2" class="node">
<title>lib/error_view.js</title>
<path fill="#e5e5e5" stroke="#000000" d="M185.7221,-58.7008C185.7221,-58.7008 93.2927,-58.7008 93.2927,-58.7008 89.1924,-58.7008 85.0922,-54.6005 85.0922,-50.5003 85.0922,-50.5003 85.0922,-42.2997 85.0922,-42.2997 85.0922,-38.1995 89.1924,-34.0992 93.2927,-34.0992 93.2927,-34.0992 185.7221,-34.0992 185.7221,-34.0992 189.8224,-34.0992 193.9226,-38.1995 193.9226,-42.2997 193.9226,-42.2997 193.9226,-50.5003 193.9226,-50.5003 193.9226,-54.6005 189.8224,-58.7008 185.7221,-58.7008"/>
<text text-anchor="middle" x="139.5074" y="-42.2" font-family="Times,serif" font-size="14.00" fill="#000000">lib/error_view.js</text>
</g>
<!-- app.js&#45;&gt;lib/error_view.js -->
<g id="edge1" class="edge">
<title>app.js&#45;&gt;lib/error_view.js</title>
<path fill="none" stroke="#000000" d="M49.1915,-19.6939C60.5548,-23.0539 74.491,-27.1748 87.9839,-31.1646"/>
<polygon fill="#000000" stroke="#000000" points="87.1053,-34.5546 97.6873,-34.0339 89.0903,-27.8419 87.1053,-34.5546"/>
</g>
<!-- lib/utils.js -->
<g id="node3" class="node">
<title>lib/utils.js</title>
<path fill="#e5e5e5" stroke="#000000" d="M293.2006,-24.7008C293.2006,-24.7008 238.3528,-24.7008 238.3528,-24.7008 234.2526,-24.7008 230.1523,-20.6005 230.1523,-16.5003 230.1523,-16.5003 230.1523,-8.2997 230.1523,-8.2997 230.1523,-4.1995 234.2526,-.0992 238.3528,-.0992 238.3528,-.0992 293.2006,-.0992 293.2006,-.0992 297.3008,-.0992 301.4011,-4.1995 301.4011,-8.2997 301.4011,-8.2997 301.4011,-16.5003 301.4011,-16.5003 301.4011,-20.6005 297.3008,-24.7008 293.2006,-24.7008"/>
<text text-anchor="middle" x="265.7767" y="-8.2" font-family="Times,serif" font-size="14.00" fill="#000000">lib/utils.js</text>
</g>
<!-- app.js&#45;&gt;lib/utils.js -->
<g id="edge2" class="edge">
<title>app.js&#45;&gt;lib/utils.js</title>
<path fill="none" stroke="#000000" d="M49.4344,-12.4C89.6433,-12.4 169.4533,-12.4 220.0888,-12.4"/>
<polygon fill="#000000" stroke="#000000" points="220.1163,-15.9001 230.1163,-12.4 220.1163,-8.9001 220.1163,-15.9001"/>
</g>
<!-- lib/error_view.js&#45;&gt;lib/utils.js -->
<g id="edge3" class="edge">
<title>lib/error_view.js&#45;&gt;lib/utils.js</title>
<path fill="none" stroke="#000000" d="M185.4507,-34.029C196.7948,-30.9745 208.9404,-27.7041 220.2639,-24.6551"/>
<polygon fill="#000000" stroke="#000000" points="221.2163,-28.0233 229.9624,-22.0436 219.3962,-21.2641 221.2163,-28.0233"/>
</g>
</g>
</svg>
