<svg width="100%" viewBox="0 0 378 184" xmlns="http://www.w3.org/2000/svg" xmlns:xlink="http://www.w3.org/1999/xlink">
<g id="graph0" class="graph" transform="scale(1 1) rotate(0) translate(4 179.4)">

<polygon fill="#ffffff" stroke="transparent" points="-4,4 -4,-179.4 373.0139,-179.4 373.0139,4 -4,4"></polygon>
<text text-anchor="middle" x="184.507" y="-157" font-family="Roboto Condensed, sans-serif" font-size="16.00" fill="#000000">egg-onerror</text>
<!-- egg&#45;onerror@2.1.0 -->
<g id="node1" class="node module-egg_onerror maintainer-atian25 maintainer-dead_horse maintainer-eggjs maintainer-fengmk2 maintainer-popomore license-unspecified">

<path fill="none" stroke="#000000" d="M83.5976,-74.3011C83.5976,-74.3011 6.4457,-74.3011 6.4457,-74.3011 3.212,-74.3011 -.0217,-71.0674 -.0217,-67.8337 -.0217,-67.8337 -.0217,-61.3663 -.0217,-61.3663 -.0217,-58.1326 3.212,-54.8989 6.4457,-54.8989 6.4457,-54.8989 83.5976,-54.8989 83.5976,-54.8989 86.8313,-54.8989 90.065,-58.1326 90.065,-61.3663 90.065,-61.3663 90.065,-67.8337 90.065,-67.8337 90.065,-71.0674 86.8313,-74.3011 83.5976,-74.3011"></path>
<text text-anchor="middle" x="45.0217" y="-61.3" font-family="Roboto Condensed, sans-serif" font-size="11.00" fill="#000000">egg-onerror@2.1.0</text>
</g>
<!-- koa&#45;onerror@4.1.0 -->
<g id="node2" class="node module-koa_onerror maintainer-dead_horse maintainer-fengmk2 license-mit">

<path fill="none" stroke="#000000" d="M210.2492,-130.3011C210.2492,-130.3011 133.0973,-130.3011 133.0973,-130.3011 129.8636,-130.3011 126.6299,-127.0674 126.6299,-123.8337 126.6299,-123.8337 126.6299,-117.3663 126.6299,-117.3663 126.6299,-114.1326 129.8636,-110.8989 133.0973,-110.8989 133.0973,-110.8989 210.2492,-110.8989 210.2492,-110.8989 213.4829,-110.8989 216.7166,-114.1326 216.7166,-117.3663 216.7166,-117.3663 216.7166,-123.8337 216.7166,-123.8337 216.7166,-127.0674 213.4829,-130.3011 210.2492,-130.3011"></path>
<text text-anchor="middle" x="171.6733" y="-117.3" font-family="Roboto Condensed, sans-serif" font-size="11.00" fill="#000000">koa-onerror@4.1.0</text>
</g>
<!-- egg&#45;onerror@2.1.0&#45;&gt;koa&#45;onerror@4.1.0 -->
<g id="edge1" class="edge">

<path fill="none" stroke="#000000" d="M64.8413,-74.3214C81.1483,-82.2167 104.9289,-93.4946 126.0433,-102.6 129.5329,-104.1049 133.1924,-105.632 136.8566,-107.128"></path>
<polygon fill="#000000" stroke="#000000" points="135.8691,-110.5029 146.4533,-110.9783 138.4757,-104.0063 135.8691,-110.5029"></polygon>
</g>
<!-- cookie@0.3.1 -->
<g id="node3" class="node module-cookie maintainer-dougwilson license-mit">

<path fill="none" stroke="#000000" d="M199.16,-93.3011C199.16,-93.3011 144.1865,-93.3011 144.1865,-93.3011 140.9528,-93.3011 137.7191,-90.0674 137.7191,-86.8337 137.7191,-86.8337 137.7191,-80.3663 137.7191,-80.3663 137.7191,-77.1326 140.9528,-73.8989 144.1865,-73.8989 144.1865,-73.8989 199.16,-73.8989 199.16,-73.8989 202.3937,-73.8989 205.6274,-77.1326 205.6274,-80.3663 205.6274,-80.3663 205.6274,-86.8337 205.6274,-86.8337 205.6274,-90.0674 202.3937,-93.3011 199.16,-93.3011"></path>
<text text-anchor="middle" x="171.6733" y="-80.3" font-family="Roboto Condensed, sans-serif" font-size="11.00" fill="#000000">cookie@0.3.1</text>
</g>
<!-- egg&#45;onerror@2.1.0&#45;&gt;cookie@0.3.1 -->
<g id="edge2" class="edge">

<path fill="none" stroke="#000000" d="M90.3881,-71.4058C102.4656,-73.2176 115.4933,-75.172 127.5056,-76.9741"></path>
<polygon fill="#000000" stroke="#000000" points="127.3425,-80.4887 137.7512,-78.5111 128.3811,-73.5662 127.3425,-80.4887"></polygon>
</g>
<!-- mustache@2.3.2 -->
<g id="node4" class="node module-mustache maintainer-dasilvacontin maintainer-flipp maintainer-jan maintainer-mjackson maintainer-nathan license-mit">

<path fill="none" stroke="#000000" d="M204.8769,-56.3011C204.8769,-56.3011 138.4696,-56.3011 138.4696,-56.3011 135.236,-56.3011 132.0023,-53.0674 132.0023,-49.8337 132.0023,-49.8337 132.0023,-43.3663 132.0023,-43.3663 132.0023,-40.1326 135.236,-36.8989 138.4696,-36.8989 138.4696,-36.8989 204.8769,-36.8989 204.8769,-36.8989 208.1105,-36.8989 211.3442,-40.1326 211.3442,-43.3663 211.3442,-43.3663 211.3442,-49.8337 211.3442,-49.8337 211.3442,-53.0674 208.1105,-56.3011 204.8769,-56.3011"></path>
<text text-anchor="middle" x="171.6733" y="-43.3" font-family="Roboto Condensed, sans-serif" font-size="11.00" fill="#000000">mustache@2.3.2</text>
</g>
<!-- egg&#45;onerror@2.1.0&#45;&gt;mustache@2.3.2 -->
<g id="edge3" class="edge">

<path fill="none" stroke="#000000" d="M90.3881,-58.1524C100.5026,-56.7149 111.2835,-55.1827 121.5763,-53.7199"></path>
<polygon fill="#000000" stroke="#000000" points="122.2557,-57.1586 131.6637,-52.2862 121.2707,-50.2282 122.2557,-57.1586"></polygon>
</g>
<!-- stack&#45;trace@0.0.10 -->
<g id="node6" class="node module-stack_trace maintainer-felixge maintainer-gajus maintainer-sebastianhoitz maintainer-tim_smart license-mit">

<path fill="none" stroke="#000000" d="M210.9662,-19.3011C210.9662,-19.3011 132.3803,-19.3011 132.3803,-19.3011 129.1467,-19.3011 125.913,-16.0674 125.913,-12.8337 125.913,-12.8337 125.913,-6.3663 125.913,-6.3663 125.913,-3.1326 129.1467,.1011 132.3803,.1011 132.3803,.1011 210.9662,.1011 210.9662,.1011 214.1998,.1011 217.4335,-3.1326 217.4335,-6.3663 217.4335,-6.3663 217.4335,-12.8337 217.4335,-12.8337 217.4335,-16.0674 214.1998,-19.3011 210.9662,-19.3011"></path>
<text text-anchor="middle" x="171.6733" y="-6.3" font-family="Roboto Condensed, sans-serif" font-size="11.00" fill="#000000">stack-trace@0.0.10</text>
</g>
<!-- egg&#45;onerror@2.1.0&#45;&gt;stack&#45;trace@0.0.10 -->
<g id="edge5" class="edge">

<path fill="none" stroke="#000000" d="M65.5356,-54.8701C81.8357,-47.2268 105.2668,-36.4347 126.0433,-27.6 129.5405,-26.1129 133.205,-24.5973 136.8722,-23.1083"></path>
<polygon fill="#000000" stroke="#000000" points="138.4885,-26.2314 146.4726,-19.267 135.888,-19.7324 138.4885,-26.2314"></polygon>
</g>
<!-- stream&#45;wormhole@1.1.0 -->
<g id="node5" class="node module-stream_wormhole maintainer-dead_horse maintainer-fengmk2 license-mit">

<path fill="none" stroke="#000000" d="M362.4022,-148.3011C362.4022,-148.3011 259.9149,-148.3011 259.9149,-148.3011 256.6812,-148.3011 253.4475,-145.0674 253.4475,-141.8337 253.4475,-141.8337 253.4475,-135.3663 253.4475,-135.3663 253.4475,-132.1326 256.6812,-128.8989 259.9149,-128.8989 259.9149,-128.8989 362.4022,-128.8989 362.4022,-128.8989 365.6359,-128.8989 368.8696,-132.1326 368.8696,-135.3663 368.8696,-135.3663 368.8696,-141.8337 368.8696,-141.8337 368.8696,-145.0674 365.6359,-148.3011 362.4022,-148.3011"></path>
<text text-anchor="middle" x="311.1586" y="-135.3" font-family="Roboto Condensed, sans-serif" font-size="11.00" fill="#000000">stream-wormhole@1.1.0</text>
</g>
<!-- koa&#45;onerror@4.1.0&#45;&gt;stream&#45;wormhole@1.1.0 -->
<g id="edge4" class="edge">

<path fill="none" stroke="#000000" d="M216.9601,-126.4441C225.3985,-127.533 234.3837,-128.6925 243.327,-129.8466"></path>
<polygon fill="#000000" stroke="#000000" points="243.0094,-133.3346 253.3751,-131.1433 243.9054,-126.3921 243.0094,-133.3346"></polygon>
</g>
<!-- escape&#45;html@1.0.3 -->
<g id="node7" class="node module-escape_html maintainer-tjholowaychuk maintainer-dougwilson license-mit">

<path fill="none" stroke="#000000" d="M350.4636,-111.3011C350.4636,-111.3011 271.8535,-111.3011 271.8535,-111.3011 268.6198,-111.3011 265.3861,-108.0674 265.3861,-104.8337 265.3861,-104.8337 265.3861,-98.3663 265.3861,-98.3663 265.3861,-95.1326 268.6198,-91.8989 271.8535,-91.8989 271.8535,-91.8989 350.4636,-91.8989 350.4636,-91.8989 353.6973,-91.8989 356.931,-95.1326 356.931,-98.3663 356.931,-98.3663 356.931,-104.8337 356.931,-104.8337 356.931,-108.0674 353.6973,-111.3011 350.4636,-111.3011"></path>
<text text-anchor="middle" x="311.1586" y="-98.3" font-family="Roboto Condensed, sans-serif" font-size="11.00" fill="#000000">escape-html@1.0.3</text>
</g>
<!-- koa&#45;onerror@4.1.0&#45;&gt;escape&#45;html@1.0.3 -->
<g id="edge6" class="edge">

<path fill="none" stroke="#000000" d="M216.9601,-114.4312C229.1373,-112.7725 242.4533,-110.9587 255.1387,-109.2308"></path>
<polygon fill="#000000" stroke="#000000" points="255.707,-112.6857 265.1431,-107.868 254.7622,-105.7498 255.707,-112.6857"></polygon>
</g>
</g>
</svg>